<svg xmlns="http://www.w3.org/2000/svg" viewBox="0 0 33.867 33.867" height="128" width="128"><path d="M13.668 20.946l-.65-.715-.344.215-.852.536-.01-2.694.003-2.708a50.39 50.39 0 0 1 2.508.417c.01.01.016 1.3.01 2.842l-.01 2.822z" fill="#12538a"/><path d="M16.924 20.244l-1.902-.454c-.3-.155-.337-.582-.072-.824.108-.1.193-.14.292-.14.118 0 2.254.45 3.1.657.145.035.305.063.356.063.074 0 3.257-1.765 6.455-3.58l4.242-2.387 3.95-2.123a.49.49 0 0 1 .511.517c0 .245-.123.376-.596.638l-.653.364L20.47 19.8l-1.588.82c-.097.01-.856-.14-1.958-.385zm.805 10.804l-1.906-.423-4.257-.935L2.3 27.658a3.01 3.01 0 0 1-1.722-1.175c-.807-1.2-.745-2.925.146-4.092a2.96 2.96 0 0 1 .345-.373l.172-.148-.238-.22c-.66-.6-.98-1.4-.98-2.422 0-.93.3-1.726.882-2.344l.3-.33-.325-.336c-.666-.688-.972-1.65-.855-2.686.137-1.207.775-2.152 1.758-2.606.257-.12 1.226-.645 5.612-3.05l8.217-4.5 1.256-.695c.027-.02.1-.056.186-.078.137-.04.243-.02 2.35.445l13.6 2.986c.555.122.722.2.82.385.08.15.038.452-.082.57-.1.1-4.405 2.53-13.975 7.9-.867.487-.82.478-1.655.293L2.9 11.922c-.47-.106-.536-.105-.772.006-.416.196-.782.67-.962 1.244a3.03 3.03 0 0 0 .008 1.546 1.93 1.93 0 0 0 1.387 1.3 35.13 35.13 0 0 0 .925.211l3.897.85 3.452.783c.335.18.336.737.001.9-.145.075-.277.08-.523.022a109.88 109.88 0 0 0-1.046-.231L4.684 17.55l-1.435-.316c-.563-.125-.675-.138-.825-.098-.745.2-1.28.93-1.364 1.86-.075.83.224 1.594.785 2.007.274.2.562.302 1.334.465l5.42 1.186 10.16 2.227.363-.203L31.74 17.58c.776-.437 1.474-.805 1.55-.817.44-.07.758.506.46.832-.092.1-2.985 1.752-6.936 3.96l-3.984 2.24c-3.26 1.833-3.84 2.146-3.983 2.146-.093 0-.806-.14-1.586-.314L3.816 22.673c-.768-.17-1.2-.247-1.32-.235-.564.06-1.124.642-1.354 1.407-.115.382-.104 1.138.023 1.504.253.734.748 1.16 1.55 1.33l15.902 3.482c.177.028.147.043 1.654-.8l6.247-3.516 3.198-1.798c3.474-1.954 3.478-1.957 3.62-1.957a.52.52 0 0 1 .53.525c0 .32.188.2-4.002 2.55l-9.974 5.6c-.632.356-.95.512-1.038.5-.07-.002-.575-.104-1.122-.227z" fill="#4682b4"/><path d="M14.5 12.227c.606.08 1.447.142 2.024.153s1.318-.06 1.583-.152c.45-.155 2.243-.878 2.336-.942.14-.097-.053-.143-.54-.128a20.53 20.53 0 0 1-4.594-.39c-1.704-.34-3.098-.9-3.646-1.446-.137-.14-.303-.182-.426-.1-.196.114-1.4 1.18-1.43 1.275-.1.276.492.672 1.592 1.048a23 23 0 0 0 3.1.693m2.58-1.712c1.5.223 2.3.295 3.4.3.644.008 1.5-.058 1.773-.14.1-.03.495-.18.878-.34l1.62-.663 3.197-1.325c.467-.2.54-.24.608-.337.105-.15.086-.222-.1-.426-.6-.63-3.068-1.472-5.844-1.994l-3.623-.5c-1.317-.106-2.594-.055-3.08.122-.26.095-.715.448-2.82 2.185-1.3 1.065-1.214.983-1.112 1.205.152.334.846.743 1.898 1.12.4.14.777.243 1.753.467l1.44.316m-.76-.997c-.575-.263-.566-.777.022-1.113.4-.222 1.277-.453 1.897-.493 1.473-.095 2.705.303 2.6.835-.197.9-3.125 1.405-4.5.77m1.824-.23a2.48 2.48 0 0 0 1.126-.215c.306-.148.393-.313.246-.47-.132-.14-.635-.253-1.05-.234-.942.042-1.587.46-1.145.736a1.26 1.26 0 0 0 .33.137 3.27 3.27 0 0 0 .491.046m1.28-2.853c-.7-.234-.93-.335-1.126-.473-.423-.3.085-.405 1.35-.28 1.852.183 4.9.87 6.15 1.387.43.178.57.268.594.382.055.274-1.477.202-3.474-.164a52.26 52.26 0 0 1-3.494-.852" fill="#9cc3e4"/></svg>